<?xml version="1.0" encoding="utf-8"?>
<!-- Generator: Adobe Illustrator 21.0.0, SVG Export Plug-In . SVG Version: 6.00 Build 0)  -->
<svg version="1.1" xmlns="http://www.w3.org/2000/svg" xmlns:xlink="http://www.w3.org/1999/xlink" x="0px" y="0px"
	 viewBox="0 0 920 276" style="enable-background:new 0 0 920 276;" xml:space="preserve">
<style type="text/css">
	.st0{fill:#FFFFFF;stroke:#231F20;stroke-width:0.3;stroke-miterlimit:10;}
	.st1{fill:#FFFFFF;}
	.st2{fill:#231F20;}
	.st3{fill:none;stroke:#231F20;stroke-width:0.3;stroke-linecap:round;stroke-linejoin:round;stroke-miterlimit:10;}
	.st4{fill:#FFFFFF;stroke:#231F20;stroke-width:0.5;stroke-linecap:round;stroke-miterlimit:10;}
	.st5{fill:none;stroke:#231F20;stroke-width:0.5;stroke-linecap:round;stroke-miterlimit:10;}
	.st6{fill:#FFFFFF;stroke:#231F20;stroke-width:0.5;stroke-miterlimit:10;}
	.st7{fill-rule:evenodd;clip-rule:evenodd;fill:#ED2027;}
	.st8{fill-rule:evenodd;clip-rule:evenodd;fill:#FFFFFF;}
	.st9{fill:#FE6B40;}
	.st10{fill:#FF0000;}
	.st11{fill:#747577;}
	.st12{fill:none;stroke:#FE6B40;stroke-miterlimit:10;}
	.st13{fill:none;stroke:#000000;stroke-miterlimit:10;}
	.st14{fill:none;stroke:#FF0000;stroke-miterlimit:10;}
	.st15{fill:#8D9C3C;}
	.st16{fill:#FFFFFF;stroke:#E4E8C8;stroke-miterlimit:10;}
	.st17{fill:#E4E8C8;stroke:#FFFFFF;stroke-miterlimit:10;}
	.st18{fill:#FB8B69;}
	.st19{fill:none;stroke:#FFFFFF;stroke-miterlimit:10;}
	.st20{fill:none;stroke:#E4E8C8;stroke-miterlimit:10;}
	.st21{fill:none;stroke:#B8C36B;stroke-miterlimit:10;}
	.st22{fill:#E4E8C8;}
	.st23{fill:#FFFFFF;stroke:#B8C36B;stroke-miterlimit:10;}
	.st24{fill:#646464;}
	.st25{fill:url(#path1948_2_);}
	.st26{fill:url(#path1950_2_);}
	.st27{opacity:0.4438;fill:url(#path1894_3_);enable-background:new    ;}
	.st28{fill:#2AA8DF;}
	.st29{fill:#092E20;}
	.st30{fill:#563D7C;}
	.st31{fill:#CCCCCC;}
	.st32{fill:#A6120D;}
	.st33{fill:#B3B3B3;}
	.st34{fill:#DD1B16;}
	.st35{fill:#F2F2F2;}
	.st36{fill:#4B376C;}
	.st37{fill:#C4C5CD;}
	.st38{fill:#747478;}
	.st39{fill:#8B888C;}
	.st40{fill:#FFFCFF;}
	.st41{fill:#797A7A;}
	.st42{fill:#1C0A05;}
	.st43{fill:#CFD1D2;}
	.st44{fill:#563D7C;stroke:#FFFFFF;stroke-width:0.7528;stroke-miterlimit:10;}
	.st45{fill:#E5E6E7;}
	.st46{fill:url(#path1948_3_);}
	.st47{fill:url(#path1950_3_);}
	.st48{opacity:0.4438;fill:url(#path1894_4_);enable-background:new    ;}
	.st49{fill:none;}
</style>
<g id="Layer_1">
</g>
<g id="Layer_2">
	<g>
		<g>
			<path class="st36" d="M251.8,123.9H37c-2.6,0-4.6,2.1-4.6,4.6v132.7c0,2.6,2.1,4.6,4.6,4.6h214.8c2.6,0,4.6-2.1,4.6-4.6V128.6
				C256.5,126,254.4,123.9,251.8,123.9z M44.7,200.2c-2.3,0-4.1-1.8-4.1-4.1c0-2.3,1.8-4.1,4.1-4.1c0,0,0,0,0,0
				c2.3,0,4.1,1.8,4.1,4.1C48.8,198.3,47,200.2,44.7,200.2z M234.2,251.8H57V138h177.1V251.8z M244.7,197.8c-1.3,0-2.3-1-2.4-2.3
				c0-1.3,1-2.4,2.3-2.4c1.3,0,2.4,1,2.4,2.3C247.1,196.8,246,197.8,244.7,197.8z"/>
			<path class="st36" d="M648.3,240.1V14.8c0-2.6-2.1-4.6-4.6-4.6H309.2c-2.6,0-4.6,2.1-4.6,4.6v225.3h-36.4v17.6
				c0,3.2,2.6,5.9,5.9,5.9H680c3.2,0,5.9-2.6,5.9-5.9v-17.6H648.3z M469.7,230.2c0-0.8,0.6-1.4,1.4-1.4h20.4c0.8,0,1.4,0.6,1.4,1.4
				s-0.6,1.4-1.4,1.4h-20.4C470.4,231.6,469.7,231,469.7,230.2z M319.8,31.2c0-2.6,2.1-4.6,4.6-4.6h304c2.6,0,4.6,2.1,4.6,4.6v191.3
				H319.8V31.2z"/>
			<path class="st36" d="M846.7,135.7c0.6,0.1,1.1,0.7,1,1.3c-0.1,0.6-0.7,1.1-1.3,1c-0.6-0.1-1-0.6-1-1.2
				C845.4,136.1,846,135.6,846.7,135.7L846.7,135.7z"/>
			<g>
				<path class="st36" d="M821.9,247.8v-20.6H716.3V50l0,0v0v0h113.8v101h14.1V32.4c0-2.6-2.1-4.6-4.6-4.6H706.9
					c-2.6,0-4.6,2.1-4.6,4.6v214.8c0,2.6,2.1,4.6,4.6,4.6h132.7c2.4,0,4.3-1.8,4.6-4H821.9z M773.8,37.1L773.8,37.1
					c1.3,0,2.4,1.1,2.3,2.4c0,1.3-1.1,2.3-2.4,2.3c-1.3,0-2.3-1.1-2.3-2.3C771.5,38.2,772.5,37.1,773.8,37.1z M774.4,243.6
					c-2.3,0-4.1-1.8-4.1-4.1c0-2.3,1.8-4.1,4.1-4.1c2.3,0,4.1,1.8,4.1,4.1C778.5,241.7,776.7,243.6,774.4,243.6z"/>
				<g>
					<path class="st36" d="M883,128.6h-61.1c-2.6,0-4.6,2.1-4.6,4.6v128c0,2.6,2.1,4.6,4.6,4.6H883c2.6,0,4.6-2.1,4.6-4.6v-128
						C887.6,130.7,885.5,128.6,883,128.6z M850.2,138L850.2,138l8.1,0v2.3h-8.1V138z M852.4,256.5c-1.3,0-2.3-1.1-2.3-2.3
						c0-1.3,1.1-2.3,2.4-2.3h0c1.3,0,2.3,1.1,2.3,2.4C854.8,255.4,853.7,256.5,852.4,256.5z M880.6,244.8h-56.3v-90.3h56.3V244.8z"
						/>
				</g>
			</g>
		</g>
		<g>
			<path class="st30" d="M484.8,123.5h-14.5v14.6h14.5c2.5,0,4.4-0.6,5.8-1.9c1.4-1.3,2.1-3.1,2.1-5.5c0-2.3-0.7-4.1-2.1-5.3
				C489.2,124.1,487.3,123.5,484.8,123.5z"/>
			<path class="st30" d="M488.6,115.9c1.3-1.1,2-2.7,2-4.8c0-2.4-0.6-4-1.8-5s-2.9-1.4-5.1-1.4h-13.4v12.9h13.4
				C485.7,117.6,487.3,117.1,488.6,115.9z"/>
			<path class="st30" d="M507.2,80.6h-53.5c-7.4,0-13.4,6-13.4,13.4v53.5c0,7.4,6,13.4,13.4,13.4h53.5c7.4,0,13.4-6,13.4-13.4V94
				C520.5,86.6,514.5,80.6,507.2,80.6z M499.9,136.9c-0.7,1.6-1.7,3-3.1,4.1s-3.2,2.1-5.4,2.8c-2.2,0.7-4.8,1-7.8,1h-21.5V98h22.7
				c4.2,0,7.6,1,10.1,2.9c2.5,1.9,3.8,4.8,3.8,8.7c0,2.4-0.6,4.4-1.7,6.1c-1.2,1.7-2.8,3-5,3.9v0.1c2.9,0.6,5.1,2,6.6,4.1
				c1.5,2.1,2.2,4.8,2.2,8C500.9,133.6,500.5,135.3,499.9,136.9z"/>
		</g>
		<g>
			<path class="st30" d="M150,194.5h-8.4v8.5h8.4c1.5,0,2.6-0.4,3.4-1.1c0.8-0.7,1.2-1.8,1.2-3.2c0-1.4-0.4-2.4-1.2-3.1
				C152.6,194.9,151.5,194.5,150,194.5z"/>
			<path class="st30" d="M163.1,169.5h-31.2c-4.3,0-7.8,3.5-7.8,7.8v31.2c0,4.3,3.5,7.8,7.8,7.8h31.2c4.3,0,7.8-3.5,7.8-7.8v-31.2
				C170.9,173,167.4,169.5,163.1,169.5z M158.8,202.4c-0.4,0.9-1,1.7-1.8,2.4c-0.8,0.7-1.9,1.2-3.1,1.6c-1.3,0.4-2.8,0.6-4.6,0.6
				h-12.5v-27.3h13.3c2.4,0,4.4,0.6,5.9,1.7c1.5,1.1,2.2,2.8,2.2,5.1c0,1.4-0.3,2.6-1,3.5c-0.7,1-1.6,1.7-2.9,2.3v0.1
				c1.7,0.4,3,1.2,3.8,2.4c0.9,1.2,1.3,2.8,1.3,4.6C159.4,200.4,159.2,201.4,158.8,202.4z"/>
			<path class="st30" d="M152.2,190.1c0.8-0.7,1.1-1.6,1.1-2.8c0-1.4-0.3-2.3-1-2.9c-0.7-0.6-1.7-0.8-3-0.8h-7.8v7.5h7.8
				C150.5,191.1,151.5,190.8,152.2,190.1z"/>
		</g>
		<g>
			<path class="st30" d="M790.2,88.2H759c-4.3,0-7.8,3.5-7.8,7.8v31.2c0,4.3,3.5,7.8,7.8,7.8h31.2c4.3,0,7.8-3.5,7.8-7.8V96
				C798,91.7,794.5,88.2,790.2,88.2z M785.9,121c-0.4,0.9-1,1.7-1.8,2.4c-0.8,0.7-1.9,1.2-3.1,1.6c-1.3,0.4-2.8,0.6-4.5,0.6h-12.5
				V98.3h13.3c2.4,0,4.4,0.6,5.9,1.7c1.5,1.1,2.2,2.8,2.2,5.1c0,1.4-0.3,2.6-1,3.5c-0.7,1-1.6,1.7-2.9,2.3v0.1
				c1.7,0.4,3,1.2,3.8,2.4c0.9,1.2,1.3,2.8,1.3,4.6C786.5,119.1,786.3,120.1,785.9,121z"/>
			<path class="st30" d="M779.4,108.8c0.8-0.7,1.1-1.6,1.1-2.8c0-1.4-0.3-2.3-1-2.9c-0.7-0.6-1.7-0.8-3-0.8h-7.8v7.5h7.8
				C777.6,109.8,778.6,109.5,779.4,108.8z"/>
			<path class="st30" d="M777.1,113.2h-8.4v8.5h8.4c1.5,0,2.6-0.4,3.4-1.1c0.8-0.7,1.2-1.8,1.2-3.2c0-1.4-0.4-2.4-1.2-3.1
				C779.7,113.6,778.6,113.2,777.1,113.2z"/>
		</g>
		<g>
			<path class="st30" d="M856.1,179.9c0.5-0.4,0.8-1.1,0.8-1.9c0-0.9-0.2-1.6-0.7-1.9c-0.5-0.4-1.1-0.6-2-0.6H849v5h5.2
				C854.9,180.6,855.6,180.4,856.1,179.9z"/>
			<path class="st30" d="M854.6,182.9H849v5.7h5.6c1,0,1.7-0.3,2.3-0.8c0.5-0.5,0.8-1.2,0.8-2.1c0-0.9-0.3-1.6-0.8-2.1
				C856.3,183.1,855.6,182.9,854.6,182.9z"/>
			<path class="st30" d="M863.3,166.2h-20.8c-2.9,0-5.2,2.3-5.2,5.2v20.8c0,2.9,2.3,5.2,5.2,5.2h20.8c2.9,0,5.2-2.3,5.2-5.2v-20.8
				C868.5,168.5,866.2,166.2,863.3,166.2z M860.5,188.1c-0.3,0.6-0.7,1.2-1.2,1.6s-1.2,0.8-2.1,1.1c-0.9,0.3-1.9,0.4-3,0.4h-8.4
				v-18.2h8.8c1.6,0,2.9,0.4,3.9,1.1c1,0.7,1.5,1.9,1.5,3.4c0,0.9-0.2,1.7-0.7,2.4c-0.4,0.7-1.1,1.2-1.9,1.5v0.1
				c1.1,0.2,2,0.8,2.5,1.6c0.6,0.8,0.9,1.9,0.9,3.1C860.8,186.8,860.7,187.5,860.5,188.1z"/>
		</g>
	</g>
	<rect class="st49" width="920" height="276"/>
</g>
</svg>
