<?xml version="1.0" encoding="utf-8"?>
<!-- Generator: Adobe Illustrator 21.0.0, SVG Export Plug-In . SVG Version: 6.00 Build 0)  -->
<svg version="1.1" xmlns="http://www.w3.org/2000/svg" xmlns:xlink="http://www.w3.org/1999/xlink" x="0px" y="0px"
	 viewBox="0 0 537 265" style="enable-background:new 0 0 537 265;" xml:space="preserve">
<style type="text/css">
	.st0{fill:#FFFFFF;stroke:#231F20;stroke-width:0.3;stroke-miterlimit:10;}
	.st1{fill:#FFFFFF;}
	.st2{fill:#231F20;}
	.st3{fill:none;stroke:#231F20;stroke-width:0.3;stroke-linecap:round;stroke-linejoin:round;stroke-miterlimit:10;}
	.st4{fill:#FFFFFF;stroke:#231F20;stroke-width:0.5;stroke-linecap:round;stroke-miterlimit:10;}
	.st5{fill:none;stroke:#231F20;stroke-width:0.5;stroke-linecap:round;stroke-miterlimit:10;}
	.st6{fill:#FFFFFF;stroke:#231F20;stroke-width:0.5;stroke-miterlimit:10;}
	.st7{fill-rule:evenodd;clip-rule:evenodd;fill:#ED2027;}
	.st8{fill-rule:evenodd;clip-rule:evenodd;fill:#FFFFFF;}
	.st9{fill:#FE6B40;}
	.st10{fill:#FF0000;}
	.st11{fill:#747577;}
	.st12{fill:none;stroke:#FE6B40;stroke-miterlimit:10;}
	.st13{fill:none;stroke:#000000;stroke-miterlimit:10;}
	.st14{fill:none;stroke:#FF0000;stroke-miterlimit:10;}
	.st15{fill:#8D9C3C;}
	.st16{fill:#FFFFFF;stroke:#E4E8C8;stroke-miterlimit:10;}
	.st17{fill:#E4E8C8;stroke:#FFFFFF;stroke-miterlimit:10;}
	.st18{fill:#FB8B69;}
	.st19{fill:none;stroke:#FFFFFF;stroke-miterlimit:10;}
	.st20{fill:none;stroke:#E4E8C8;stroke-miterlimit:10;}
	.st21{fill:none;stroke:#B8C36B;stroke-miterlimit:10;}
	.st22{fill:#E4E8C8;}
	.st23{fill:#FFFFFF;stroke:#B8C36B;stroke-miterlimit:10;}
	.st24{fill:#646464;}
	.st25{fill:url(#path1948_2_);}
	.st26{fill:url(#path1950_2_);}
	.st27{opacity:0.4438;fill:url(#path1894_3_);enable-background:new    ;}
	.st28{fill:#2AA8DF;}
	.st29{fill:#092E20;}
	.st30{fill:#563D7C;}
	.st31{fill:#CCCCCC;}
	.st32{fill:#A6120D;}
	.st33{fill:#B3B3B3;}
	.st34{fill:#DD1B16;}
	.st35{fill:#F2F2F2;}
	.st36{fill:#4B376C;}
	.st37{fill:#C4C5CD;}
	.st38{fill:#747478;}
	.st39{fill:#8B888C;}
	.st40{fill:#FFFCFF;}
	.st41{fill:#797A7A;}
	.st42{fill:#1C0A05;}
	.st43{fill:#CFD1D2;}
	.st44{fill:#563D7C;stroke:#FFFFFF;stroke-width:0.7528;stroke-miterlimit:10;}
	.st45{fill:#E5E6E7;}
	.st46{fill:url(#path1948_3_);}
	.st47{fill:url(#path1950_3_);}
	.st48{opacity:0.4438;fill:url(#path1894_4_);enable-background:new    ;}
	.st49{fill:none;}
</style>
<g id="Layer_1">
</g>
<g id="Layer_2">
	<g>
		<g>
			<g>
				<path class="st30" d="M100.8,125.3c2-1.7,3-4.2,3-7.3c0-3.6-0.9-6.1-2.7-7.6c-1.8-1.5-4.4-2.2-7.8-2.2H73v19.7h20.4
					C96.3,127.8,98.8,127,100.8,125.3z"/>
				<path class="st30" d="M95,136.8H73V159H95c3.8,0,6.7-1,8.8-3c2.1-2,3.2-4.7,3.2-8.3c0-3.5-1-6.2-3.2-8.1
					C101.7,137.7,98.8,136.8,95,136.8z"/>
				<path class="st30" d="M129.1,71.4H47.7c-11.2,0-20.4,9.2-20.4,20.4v81.4c0,11.2,9.2,20.4,20.4,20.4h81.4
					c11.2,0,20.4-9.2,20.4-20.4V91.8C149.4,80.6,140.3,71.4,129.1,71.4z M118,157.2c-1,2.4-2.6,4.5-4.7,6.3
					c-2.1,1.8-4.8,3.2-8.2,4.2c-3.3,1-7.3,1.6-11.9,1.6H60.5V98h34.6c6.4,0,11.5,1.5,15.4,4.4c3.9,2.9,5.8,7.3,5.8,13.3
					c0,3.6-0.9,6.7-2.6,9.2c-1.8,2.6-4.3,4.6-7.5,5.9v0.2c4.4,0.9,7.7,3,10,6.2c2.3,3.2,3.4,7.3,3.4,12.1
					C119.5,152.2,119,154.8,118,157.2z"/>
			</g>
			<g>
				<path class="st30" d="M176.1,159.5v-57.3h21.5c4.4,0,7.9,0.6,10.5,1.7c2.6,1.2,4.7,2.9,6.2,5.4c1.5,2.4,2.2,4.9,2.2,7.6
					c0,2.4-0.7,4.8-2,6.9c-1.3,2.2-3.3,3.9-6,5.2c3.5,1,6.1,2.7,8,5.2c1.9,2.4,2.8,5.3,2.8,8.7c0,2.7-0.6,5.2-1.7,7.5
					c-1.1,2.3-2.5,4.1-4.2,5.3c-1.7,1.3-3.8,2.2-6.3,2.8c-2.5,0.6-5.6,1-9.2,1H176.1z M183.7,126.2h12.4c3.4,0,5.8-0.2,7.2-0.7
					c1.9-0.6,3.4-1.5,4.4-2.9c1-1.3,1.5-3,1.5-5c0-1.9-0.5-3.6-1.4-5c-0.9-1.4-2.2-2.4-3.9-3c-1.7-0.5-4.6-0.8-8.7-0.8h-11.5V126.2z
					 M183.7,152.7H198c2.4,0,4.2-0.1,5.2-0.3c1.7-0.3,3.2-0.8,4.4-1.6c1.2-0.7,2.1-1.8,2.9-3.2c0.8-1.4,1.1-3,1.1-4.8
					c0-2.1-0.5-4-1.6-5.6c-1.1-1.6-2.6-2.7-4.6-3.3c-1.9-0.6-4.7-1-8.4-1h-13.3V152.7z"/>
				<path class="st30" d="M226.3,138.7c0-7.7,2.1-13.4,6.4-17.1c3.6-3.1,7.9-4.6,13.1-4.6c5.7,0,10.4,1.9,14,5.6
					c3.6,3.7,5.4,8.9,5.4,15.5c0,5.3-0.8,9.5-2.4,12.6c-1.6,3.1-3.9,5.4-7,7.1c-3.1,1.7-6.4,2.5-10,2.5c-5.8,0-10.5-1.9-14.1-5.6
					C228.1,151.1,226.3,145.7,226.3,138.7z M233.5,138.7c0,5.3,1.2,9.3,3.5,11.9c2.3,2.6,5.2,4,8.8,4c3.5,0,6.4-1.3,8.7-4
					c2.3-2.7,3.5-6.7,3.5-12.2c0-5.1-1.2-9-3.5-11.7c-2.3-2.6-5.2-4-8.7-4c-3.5,0-6.4,1.3-8.8,3.9
					C234.7,129.4,233.5,133.4,233.5,138.7z"/>
				<path class="st30" d="M270.8,138.7c0-7.7,2.1-13.4,6.4-17.1c3.6-3.1,7.9-4.6,13.1-4.6c5.7,0,10.4,1.9,14,5.6
					c3.6,3.7,5.4,8.9,5.4,15.5c0,5.3-0.8,9.5-2.4,12.6c-1.6,3.1-3.9,5.4-7,7.1c-3.1,1.7-6.4,2.5-10,2.5c-5.8,0-10.5-1.9-14.1-5.6
					C272.6,151.1,270.8,145.7,270.8,138.7z M278.1,138.7c0,5.3,1.2,9.3,3.5,11.9c2.3,2.6,5.2,4,8.8,4c3.5,0,6.4-1.3,8.7-4
					c2.3-2.7,3.5-6.7,3.5-12.2c0-5.1-1.2-9-3.5-11.7c-2.3-2.6-5.2-4-8.7-4c-3.5,0-6.4,1.3-8.8,3.9
					C279.2,129.4,278.1,133.4,278.1,138.7z"/>
				<path class="st30" d="M333.3,153.2l1,6.2c-2,0.4-3.8,0.6-5.3,0.6c-2.6,0-4.5-0.4-5.9-1.2c-1.4-0.8-2.4-1.9-3-3.2
					c-0.6-1.3-0.9-4.1-0.9-8.3v-23.9h-5.2v-5.5h5.2v-10.3l7-4.2v14.5h7.1v5.5h-7.1v24.3c0,2,0.1,3.3,0.4,3.9c0.2,0.6,0.7,1,1.2,1.4
					c0.6,0.3,1.4,0.5,2.4,0.5C331,153.4,332,153.3,333.3,153.2z"/>
				<path class="st30" d="M337.4,147.1l7-1.1c0.4,2.8,1.5,4.9,3.3,6.4c1.8,1.5,4.3,2.2,7.5,2.2c3.2,0,5.6-0.7,7.2-2
					c1.6-1.3,2.3-2.9,2.3-4.6c0-1.6-0.7-2.8-2.1-3.8c-1-0.6-3.4-1.4-7.2-2.4c-5.2-1.3-8.7-2.4-10.7-3.4c-2-1-3.5-2.3-4.5-3.9
					c-1-1.7-1.5-3.5-1.5-5.6c0-1.9,0.4-3.6,1.3-5.1c0.8-1.6,2-2.9,3.5-3.9c1.1-0.8,2.6-1.5,4.5-2.1c1.9-0.6,3.9-0.8,6.1-0.8
					c3.3,0,6.1,0.5,8.6,1.4c2.5,0.9,4.3,2.2,5.5,3.8c1.2,1.6,2,3.7,2.4,6.4l-6.9,0.9c-0.3-2.1-1.2-3.8-2.7-5
					c-1.5-1.2-3.6-1.8-6.4-1.8c-3.2,0-5.5,0.5-6.9,1.6c-1.4,1.1-2.1,2.3-2.1,3.8c0,0.9,0.3,1.7,0.9,2.5c0.6,0.8,1.5,1.4,2.7,1.9
					c0.7,0.3,2.8,0.9,6.2,1.8c5,1.3,8.4,2.4,10.4,3.3c2,0.8,3.5,2.1,4.6,3.7c1.1,1.6,1.7,3.6,1.7,6c0,2.3-0.7,4.6-2.1,6.6
					c-1.4,2.1-3.3,3.7-5.9,4.8c-2.6,1.1-5.5,1.7-8.8,1.7c-5.4,0-9.5-1.1-12.3-3.4C340,154.8,338.2,151.5,337.4,147.1z"/>
				<path class="st30" d="M395.6,153.2l1,6.2c-2,0.4-3.8,0.6-5.3,0.6c-2.6,0-4.5-0.4-5.9-1.2c-1.4-0.8-2.4-1.9-3-3.2
					c-0.6-1.3-0.9-4.1-0.9-8.3v-23.9h-5.2v-5.5h5.2v-10.3l7-4.2v14.5h7.1v5.5h-7.1v24.3c0,2,0.1,3.3,0.4,3.9c0.2,0.6,0.7,1,1.2,1.4
					c0.6,0.3,1.4,0.5,2.4,0.5C393.3,153.4,394.3,153.3,395.6,153.2z"/>
				<path class="st30" d="M402.4,159.5v-41.5h6.3v6.3c1.6-2.9,3.1-4.9,4.5-5.8c1.4-0.9,2.9-1.4,4.5-1.4c2.4,0,4.8,0.8,7.2,2.3
					l-2.4,6.5c-1.7-1-3.4-1.5-5.2-1.5c-1.5,0-2.9,0.5-4.1,1.4c-1.2,0.9-2.1,2.2-2.6,3.9c-0.8,2.5-1.2,5.2-1.2,8.2v21.7H402.4z"/>
				<path class="st30" d="M456.2,154.3c-2.6,2.2-5.1,3.8-7.5,4.7s-5,1.4-7.8,1.4c-4.6,0-8.1-1.1-10.5-3.3c-2.4-2.2-3.7-5.1-3.7-8.5
					c0-2,0.5-3.9,1.4-5.6c0.9-1.7,2.1-3,3.6-4c1.5-1,3.2-1.8,5.1-2.3c1.4-0.4,3.5-0.7,6.3-1.1c5.7-0.7,9.9-1.5,12.5-2.4
					c0-1,0-1.6,0-1.8c0-2.9-0.7-4.9-2-6.1c-1.8-1.6-4.5-2.4-8-2.4c-3.3,0-5.8,0.6-7.3,1.7c-1.6,1.2-2.7,3.2-3.5,6.2l-6.9-0.9
					c0.6-2.9,1.7-5.3,3.1-7.1c1.4-1.8,3.5-3.2,6.2-4.2c2.7-1,5.8-1.5,9.4-1.5c3.5,0,6.4,0.4,8.6,1.3c2.2,0.8,3.8,1.9,4.9,3.1
					c1,1.3,1.8,2.9,2.2,4.8c0.2,1.2,0.4,3.4,0.4,6.5v9.4c0,6.5,0.1,10.7,0.4,12.4c0.3,1.7,0.9,3.4,1.8,5h-7.3
					C456.9,158,456.4,156.3,456.2,154.3z M455.6,138.6c-2.6,1-6.4,1.9-11.5,2.7c-2.9,0.4-4.9,0.9-6.1,1.4c-1.2,0.5-2.1,1.3-2.8,2.3
					c-0.7,1-1,2.1-1,3.3c0,1.9,0.7,3.4,2.1,4.7c1.4,1.3,3.5,1.9,6.2,1.9c2.7,0,5.1-0.6,7.2-1.8c2.1-1.2,3.7-2.8,4.7-4.9
					c0.8-1.6,1.1-3.9,1.1-7V138.6z"/>
				<path class="st30" d="M473.6,175.4v-57.4h6.4v5.4c1.5-2.1,3.2-3.7,5.1-4.7c1.9-1.1,4.2-1.6,6.9-1.6c3.5,0,6.7,0.9,9.4,2.7
					c2.7,1.8,4.8,4.4,6.1,7.7c1.4,3.3,2.1,7,2.1,10.9c0,4.2-0.8,8.1-2.3,11.5c-1.5,3.4-3.7,6-6.6,7.8c-2.9,1.8-6,2.7-9.2,2.7
					c-2.3,0-4.4-0.5-6.3-1.5c-1.9-1-3.4-2.2-4.6-3.8v20.2H473.6z M480,138.9c0,5.3,1.1,9.3,3.2,11.8c2.2,2.6,4.8,3.8,7.9,3.8
					c3.1,0,5.8-1.3,8-4c2.2-2.6,3.3-6.7,3.3-12.3c0-5.3-1.1-9.2-3.3-11.9c-2.2-2.6-4.8-3.9-7.8-3.9c-3,0-5.6,1.4-8,4.2
					C481.2,129.5,480,133.6,480,138.9z"/>
			</g>
		</g>
	</g>
	<rect x="0" class="st49" width="537" height="265"/>
</g>
</svg>
