<?xml version="1.0" encoding="utf-8"?>
<!-- Generator: Adobe Illustrator 21.0.0, SVG Export Plug-In . SVG Version: 6.00 Build 0)  -->
<svg version="1.1" xmlns="http://www.w3.org/2000/svg" xmlns:xlink="http://www.w3.org/1999/xlink" x="0px" y="0px"
	 viewBox="0 0 537 265" style="enable-background:new 0 0 537 265;" xml:space="preserve">
<style type="text/css">
	.st0{fill:#FFFFFF;stroke:#231F20;stroke-width:0.3;stroke-miterlimit:10;}
	.st1{fill:#FFFFFF;}
	.st2{fill:#231F20;}
	.st3{fill:none;stroke:#231F20;stroke-width:0.3;stroke-linecap:round;stroke-linejoin:round;stroke-miterlimit:10;}
	.st4{fill:#FFFFFF;stroke:#231F20;stroke-width:0.5;stroke-linecap:round;stroke-miterlimit:10;}
	.st5{fill:none;stroke:#231F20;stroke-width:0.5;stroke-linecap:round;stroke-miterlimit:10;}
	.st6{fill:#FFFFFF;stroke:#231F20;stroke-width:0.5;stroke-miterlimit:10;}
	.st7{fill-rule:evenodd;clip-rule:evenodd;fill:#ED2027;}
	.st8{fill-rule:evenodd;clip-rule:evenodd;fill:#FFFFFF;}
	.st9{fill:#FE6B40;}
	.st10{fill:#FF0000;}
	.st11{fill:#747577;}
	.st12{fill:none;stroke:#FE6B40;stroke-miterlimit:10;}
	.st13{fill:none;stroke:#000000;stroke-miterlimit:10;}
	.st14{fill:none;stroke:#FF0000;stroke-miterlimit:10;}
	.st15{fill:#8D9C3C;}
	.st16{fill:#FFFFFF;stroke:#E4E8C8;stroke-miterlimit:10;}
	.st17{fill:#E4E8C8;stroke:#FFFFFF;stroke-miterlimit:10;}
	.st18{fill:#FB8B69;}
	.st19{fill:none;stroke:#FFFFFF;stroke-miterlimit:10;}
	.st20{fill:none;stroke:#E4E8C8;stroke-miterlimit:10;}
	.st21{fill:none;stroke:#B8C36B;stroke-miterlimit:10;}
	.st22{fill:#E4E8C8;}
	.st23{fill:#FFFFFF;stroke:#B8C36B;stroke-miterlimit:10;}
	.st24{fill:#646464;}
	.st25{fill:url(#path1948_2_);}
	.st26{fill:url(#path1950_2_);}
	.st27{opacity:0.4438;fill:url(#path1894_3_);enable-background:new    ;}
	.st28{fill:#2AA8DF;}
	.st29{fill:#092E20;}
	.st30{fill:#563D7C;}
	.st31{fill:#CCCCCC;}
	.st32{fill:#A6120D;}
	.st33{fill:#B3B3B3;}
	.st34{fill:#DD1B16;}
	.st35{fill:#F2F2F2;}
	.st36{fill:#4B376C;}
	.st37{fill:#C4C5CD;}
	.st38{fill:#747478;}
	.st39{fill:#8B888C;}
	.st40{fill:#FFFCFF;}
	.st41{fill:#797A7A;}
	.st42{fill:#1C0A05;}
	.st43{fill:#CFD1D2;}
	.st44{fill:#563D7C;stroke:#FFFFFF;stroke-width:0.7528;stroke-miterlimit:10;}
	.st45{fill:#E5E6E7;}
	.st46{fill:url(#path1948_3_);}
	.st47{fill:url(#path1950_3_);}
	.st48{opacity:0.4438;fill:url(#path1894_4_);enable-background:new    ;}
	.st49{fill:none;}
</style>
<g id="Layer_1">
</g>
<g id="Layer_2">
	<g>
		<g id="g2303_1_">
			<path id="path46_1_" class="st24" d="M225,125.1c0-14.9-4.2-22.5-12.7-22.9c-3.4-0.2-6.7,0.4-9.9,1.6c-2.6,0.9-4.3,1.8-5.2,2.7
				V142c5.4,3.4,10.2,5,14.4,4.7C220.5,146.1,225,138.9,225,125.1z M235.4,125.7c0,7.5-1.8,13.8-5.3,18.8c-4,5.6-9.5,8.5-16.5,8.7
				c-5.3,0.2-10.8-1.5-16.4-5v32.2l-9.1-3.2v-71.5c1.5-1.8,3.4-3.4,5.7-4.7c5.4-3.2,12-4.8,19.7-4.9l0.1,0.1
				c7.1-0.1,12.5,2.8,16.3,8.7C233.6,110.3,235.4,117.2,235.4,125.7z"/>
			<path id="path48_1_" class="st24" d="M290.9,146.8c0,10.1-1,17.1-3,21c-2,3.9-5.9,7-11.6,9.3c-4.6,1.8-9.7,2.8-15.1,3l-1.5-5.7
				c5.5-0.7,9.3-1.5,11.6-2.2c4.4-1.5,7.4-3.8,9.1-6.8c1.3-2.5,2-7.3,2-14.3v-2.4c-6.2,2.8-12.7,4.2-19.5,4.2
				c-4.5,0-8.4-1.4-11.8-4.2c-3.8-3.1-5.7-7-5.7-11.7V99.2l9.1-3.1v38.1c0,4.1,1.3,7.2,3.9,9.4c2.6,2.2,6,3.3,10.2,3.2
				c4.2-0.1,8.6-1.7,13.4-4.9V97.4h9.1V146.8z"/>
			<path id="path50_1_" class="st24" d="M326.4,152.7c-1.1,0.1-2.1,0.1-3,0.1c-5.1,0-9.1-1.2-12-3.7c-2.9-2.5-4.3-5.8-4.3-10.2
				v-35.8h-6.2v-5.7h6.2V82.3l9.1-3.2v18.4h10.2v5.7h-10.2v35.5c0,3.4,0.9,5.8,2.7,7.2c1.6,1.2,4.1,1.8,7.5,2V152.7z"/>
			<path id="path52_1_" class="st24" d="M381.4,151.9h-9.1v-35.1c0-3.6-0.8-6.6-2.5-9.2c-1.9-2.9-4.6-4.4-8-4.4
				c-4.2,0-9.4,2.2-15.6,6.6v42h-9.1V68.1l9.1-2.9v38.2c5.8-4.2,12.2-6.3,19-6.3c4.8,0,8.7,1.6,11.7,4.9c3,3.2,4.5,7.3,4.5,12.1
				V151.9L381.4,151.9z"/>
			<path id="path54_1_" class="st24" d="M429.7,123.6c0-5.7-1.1-10.4-3.2-14.1c-2.6-4.5-6.6-6.9-11.9-7.2
				c-10,0.6-14.9,7.7-14.9,21.4c0,6.3,1,11.5,3.1,15.7c2.7,5.4,6.7,8,12,7.9C424.7,147.2,429.7,139.3,429.7,123.6z M439.7,123.7
				c0,8.1-2.1,14.9-6.2,20.3c-4.6,6-10.9,9.1-18.9,9.1c-8,0-14.2-3-18.7-9.1c-4.1-5.4-6.1-12.2-6.1-20.3c0-7.6,2.2-14.1,6.6-19.3
				c4.6-5.5,10.7-8.3,18.3-8.3c7.5,0,13.7,2.8,18.4,8.3C437.5,109.6,439.7,116.1,439.7,123.7z"/>
			<path id="path56_1_" class="st24" d="M491.8,151.9h-9.1v-37.1c0-4.1-1.2-7.2-3.7-9.5c-2.4-2.3-5.7-3.4-9.8-3.3
				c-4.3,0.1-8.4,1.5-12.3,4.2v45.7h-9.1v-46.8c5.2-3.8,10-6.3,14.4-7.5c4.1-1.1,7.8-1.6,11-1.6c2.2,0,4.2,0.2,6.1,0.6
				c3.6,0.8,6.5,2.4,8.7,4.6c2.5,2.5,3.7,5.5,3.7,9V151.9z"/>
			
				<linearGradient id="path1948_2_" gradientUnits="userSpaceOnUse" x1="948.1992" y1="6240.5854" x2="1059.4058" y2="6144.9067" gradientTransform="matrix(0.5625 0 0 -0.568 -493.8 3616.3293)">
				<stop  offset="0" style="stop-color:#5A9FD4"/>
				<stop  offset="1" style="stop-color:#306998"/>
			</linearGradient>
			<path id="path1948_1_" class="st25" d="M98.4,68.4c-4.7,0-9.1,0.4-13.1,1.1c-11.6,2-13.7,6.3-13.7,14.2v10.4H99v3.5H71.6H61.4
				c-7.9,0-14.9,4.8-17.1,13.9c-2.5,10.4-2.6,16.9,0,27.8c1.9,8.1,6.6,13.9,14.5,13.9h9.4v-12.5c0-9,7.8-17,17.1-17h27.3
				c7.6,0,13.7-6.3,13.7-13.9v-26c0-7.4-6.3-13-13.7-14.2C107.9,68.8,103,68.4,98.4,68.4z M83.6,76.8c2.8,0,5.1,2.3,5.1,5.2
				c0,2.9-2.3,5.2-5.1,5.2c-2.8,0-5.1-2.3-5.1-5.2C78.4,79.1,80.7,76.8,83.6,76.8z"/>
			
				<linearGradient id="path1950_2_" gradientUnits="userSpaceOnUse" x1="1102.3962" y1="6087.0078" x2="1062.6865" y2="6143.1899" gradientTransform="matrix(0.5625 0 0 -0.568 -493.8 3616.3293)">
				<stop  offset="0" style="stop-color:#FFD43B"/>
				<stop  offset="1" style="stop-color:#FFE873"/>
			</linearGradient>
			<path id="path1950_1_" class="st26" d="M129.7,97.6v12.1c0,9.4-8,17.3-17.1,17.3H85.3c-7.5,0-13.7,6.4-13.7,13.9v26
				c0,7.4,6.4,11.8,13.7,13.9c8.7,2.5,17,3,27.3,0c6.9-2,13.7-6,13.7-13.9v-10.4H99v-3.5h27.3H140c7.9,0,10.9-5.5,13.7-13.9
				c2.9-8.6,2.7-16.8,0-27.8c-2-7.9-5.7-13.9-13.7-13.9H129.7z M114.3,163.6c2.8,0,5.1,2.3,5.1,5.2c0,2.9-2.3,5.2-5.1,5.2
				c-2.8,0-5.1-2.3-5.1-5.2C109.2,165.9,111.5,163.6,114.3,163.6z"/>
			<path id="text3004_1_" class="st24" d="M509.5,89.3h1.6v-10h3.8v-1.2h-9.1v1.2h3.8V89.3 M516.3,89.3h1.4v-9.1l3,9.1h1.5l3.1-9.1
				v9.1h1.5V78.2h-2l-3.4,9.6l-2.9-9.6h-2.2V89.3"/>
			
				<radialGradient id="path1894_3_" cx="7347.3623" cy="1446.9017" r="29.6193" gradientTransform="matrix(0 -0.2399 -1.0547 0 1625.3248 1961.3076)" gradientUnits="userSpaceOnUse">
				<stop  offset="0" style="stop-color:#B8B8B8;stop-opacity:0.498"/>
				<stop  offset="1" style="stop-color:#7F7F7F;stop-opacity:0"/>
			</radialGradient>
			<path id="path1894_1_" class="st27" d="M135.9,198.7c0,3.9-16.4,7.1-36.7,7.1c-20.2,0-36.7-3.2-36.7-7.1c0-3.9,16.4-7.1,36.7-7.1
				C119.5,191.6,135.9,194.8,135.9,198.7L135.9,198.7z"/>
		</g>
	</g>
	<rect class="st49" width="537" height="265"/>
</g>
</svg>
